<svg xmlns="http://www.w3.org/2000/svg" version="1.1" xmlns:xlink="http://www.w3.org/1999/xlink" xmlns:svgjs="http://svgjs.dev/svgjs" width="1000" height="1000" viewBox="0 0 1000 1000"><rect width="1000" height="1000" fill="#ffffff"></rect><g transform="matrix(0.7,0,0,0.7,149.8514957112642,253.4497975708502)"><svg viewBox="0 0 350 247" data-background-color="#ffffff" preserveAspectRatio="xMidYMid meet" height="705" width="1000" xmlns="http://www.w3.org/2000/svg" xmlns:xlink="http://www.w3.org/1999/xlink"><g id="tight-bounds" transform="matrix(1,0,0,1,0.0742521654974837,-0.09999999999999432)"><svg viewBox="0 0 349.85147732008505 247.2" height="247.2" width="349.85147732008505"><g><svg viewBox="0 0 395.5199999999999 279.4687184086012" height="247.2" width="349.85147732008505"><g transform="matrix(1,0,0,1,0,207.93850564264375)"><svg viewBox="0 0 395.5199999999999 71.53021276595744" height="71.53021276595744" width="395.5199999999999"><g id="textblocktransform"><svg viewBox="0 0 395.5199999999999 71.53021276595744" height="71.53021276595744" width="395.5199999999999" id="textblock"><g><svg viewBox="0 0 395.5199999999999 71.53021276595744" height="71.53021276595744" width="395.5199999999999"><g transform="matrix(1,0,0,1,0,0)"><svg width="395.5199999999999" viewBox="0.550000011920929 -35.04999923706055 197.37998962402344 35.70000076293945" height="71.53021276595744" data-palette-color="#ea3c12"><path d="M0.55-34.4L22.9-34.4 22.35-30.6 13.9-30.6 13.9 0 9.25 0 9.25-30.6 0.55-30.6 0.55-34.4ZM38.85-35.05Q45-35.05 48.52-30.53 52.05-26 52.05-17.2L52.05-17.2Q52.05-8.55 48.55-3.95 45.05 0.65 38.85 0.65L38.85 0.65Q32.7 0.65 29.17-3.88 25.65-8.4 25.65-17.15L25.65-17.15Q25.65-22.9 27.27-26.93 28.9-30.95 31.87-33 34.85-35.05 38.85-35.05L38.85-35.05ZM38.85-31.35Q30.55-31.35 30.55-17.15L30.55-17.15Q30.55-3.1 38.85-3.1L38.85-3.1Q42.95-3.1 45.05-6.45 47.15-9.8 47.15-17.2L47.15-17.2Q47.15-24.55 45.02-27.95 42.9-31.35 38.85-31.35L38.85-31.35ZM65.9-34.4Q70.34-34.4 73.65-33.05 76.95-31.7 79.02-27.95 81.09-24.2 81.09-17.4L81.09-17.4Q81.09-7.7 76.97-3.85 72.84 0 66.55 0L66.55 0 58.8 0 58.8-34.4 65.9-34.4ZM66.59-30.75L63.45-30.75 63.45-3.6 66.84-3.6Q71.15-3.6 73.7-6.58 76.25-9.55 76.25-17.4L76.25-17.4Q76.25-22.9 74.92-25.85 73.59-28.8 71.52-29.78 69.45-30.75 66.59-30.75L66.59-30.75ZM99.29-35.05Q105.44-35.05 108.97-30.53 112.49-26 112.49-17.2L112.49-17.2Q112.49-8.55 108.99-3.95 105.49 0.65 99.29 0.65L99.29 0.65Q93.14 0.65 89.62-3.88 86.09-8.4 86.09-17.15L86.09-17.15Q86.09-22.9 87.72-26.93 89.34-30.95 92.32-33 95.29-35.05 99.29-35.05L99.29-35.05ZM99.29-31.35Q90.99-31.35 90.99-17.15L90.99-17.15Q90.99-3.1 99.29-3.1L99.29-3.1Q103.39-3.1 105.49-6.45 107.59-9.8 107.59-17.2L107.59-17.2Q107.59-24.55 105.47-27.95 103.34-31.35 99.29-31.35L99.29-31.35ZM119.24-34.4L123.89-34.4 123.89-3.95 136.44-3.95 135.94 0 119.24 0 119.24-34.4ZM141.39-34.4L146.04-34.4 146.04 0 141.39 0 141.39-34.4ZM162.64-35.05Q165.69-35.05 167.96-34.05 170.24-33.05 172.24-31.05L172.24-31.05 169.89-28.4Q168.19-29.9 166.51-30.63 164.84-31.35 162.89-31.35L162.89-31.35Q160.39-31.35 158.86-29.98 157.34-28.6 157.34-26.35L157.34-26.35Q157.34-24.85 157.94-23.78 158.54-22.7 159.99-21.83 161.44-20.95 164.09-20.05L164.09-20.05Q167.14-18.95 169.09-17.7 171.04-16.45 172.09-14.5 173.14-12.55 173.14-9.6L173.14-9.6Q173.14-6.65 171.79-4.33 170.44-2 167.91-0.68 165.39 0.65 161.99 0.65L161.99 0.65Q155.74 0.65 151.34-3.85L151.34-3.85 153.79-6.5Q155.64-4.85 157.56-3.98 159.49-3.1 161.84-3.1L161.84-3.1Q164.79-3.1 166.56-4.78 168.34-6.45 168.34-9.4L168.34-9.4Q168.34-11.95 166.91-13.45 165.49-14.95 161.69-16.25L161.69-16.25Q156.84-17.95 154.71-20.2 152.59-22.45 152.59-26.05L152.59-26.05Q152.59-28.6 153.86-30.68 155.14-32.75 157.44-33.9 159.74-35.05 162.64-35.05L162.64-35.05ZM175.58-34.4L197.93-34.4 197.38-30.6 188.93-30.6 188.93 0 184.28 0 184.28-30.6 175.58-30.6 175.58-34.4Z" opacity="1" transform="matrix(1,0,0,1,0,0)" fill="#000000" class="wordmark-text-0" data-fill-palette-color="primary" id="text-0"></path></svg></g></svg></g></svg></g></svg></g><g transform="matrix(1,0,0,1,110.67731368761426,0)"><svg viewBox="0 0 174.1653726247714 174.1653726247714" height="174.1653726247714" width="174.1653726247714"><g><svg></svg></g><g id="icon-0"><svg viewBox="0 0 174.1653726247714 174.1653726247714" height="174.1653726247714" width="174.1653726247714"><g><path d="M0 87.083c0-48.094 38.988-87.083 87.083-87.083 48.094 0 87.083 38.988 87.082 87.083 0 48.094-38.988 87.083-87.082 87.082-48.094 0-87.083-38.988-87.083-87.082zM87.083 167.715c44.532 0 80.632-36.1 80.632-80.632 0-44.532-36.1-80.632-80.632-80.632-44.532 0-80.632 36.1-80.632 80.632 0 44.532 36.1 80.632 80.632 80.632z" data-fill-palette-color="accent" fill="#000000" stroke="transparent"></path></g><g transform="matrix(1,0,0,1,36.688096024821846,42.98741981076733)"><svg viewBox="0 0 100.78918057512772 88.19053300323675" height="88.19053300323675" width="100.78918057512772"><g><svg xmlns="http://www.w3.org/2000/svg" xmlns:xlink="http://www.w3.org/1999/xlink" version="1.1" x="0" y="0" viewBox="0 0 100 87.5" style="enable-background:new 0 0 100 87.5;" xml:space="preserve" width="100.78918057512772" height="88.19053300323675" class="icon-s-0" data-fill-palette-color="accent" id="s-0"><path d="M12.5 6.25c0 3.455-2.795 6.25-6.25 6.25C2.795 12.5 0 9.705 0 6.25 0 2.795 2.795 0 6.25 0 9.705 0 12.5 2.795 12.5 6.25z" fill="#000000" data-fill-palette-color="accent"></path><rect x="25" width="75" height="12.5" fill="#000000" data-fill-palette-color="accent"></rect><path d="M12.5 56.25c0 3.455-2.795 6.25-6.25 6.25C2.795 62.5 0 59.705 0 56.25S2.795 50 6.25 50C9.705 50 12.5 52.795 12.5 56.25z" fill="#000000" data-fill-palette-color="accent"></path><rect x="25" y="50" width="75" height="12.5" fill="#000000" data-fill-palette-color="accent"></rect><path d="M12.5 31.25c0 3.455-2.795 6.25-6.25 6.25C2.795 37.5 0 34.705 0 31.25S2.795 25 6.25 25C9.705 25 12.5 27.795 12.5 31.25z" fill="#000000" data-fill-palette-color="accent"></path><path d="M12.5 81.25c0 3.455-2.795 6.25-6.25 6.25C2.795 87.5 0 84.705 0 81.25S2.795 75 6.25 75C9.705 75 12.5 77.795 12.5 81.25z" fill="#000000" data-fill-palette-color="accent"></path><rect x="25" y="25" width="75" height="12.5" fill="#000000" data-fill-palette-color="accent"></rect><rect x="25" y="75" width="75" height="12.5" fill="#000000" data-fill-palette-color="accent"></rect></svg></g></svg></g></svg></g></svg></g><g></g></svg></g><defs></defs></svg><rect width="349.85147732008505" height="247.2" fill="none" stroke="none" visibility="hidden"></rect></g></svg></g></svg>